# xmcd CD database file generated by OrangeCD 5.2
#
# Track frame offsets:
#	180
#	15598
#	30215
#	61731
#	83918
#	106483
#	120895
#	136638
#	167104
#	185725
#
# Disc length: 2727 seconds
#
# Revision: 0
# Processed by: cddbd v1.5.1PL0 Copyright (c) Steve Scherf et al.
# Submitted via: OrangeCD 5.2
#
DISCID=6e0aa50a
DTITLE=B.B. Major - Evil Woman - Evil Ways
DYEAR=1996
DGENRE=Blues
TTITLE0=My Love is so strong (for you)
TTITLE1=Sstill Your Fool
TTITLE2=My baby told me
TTITLE3=Bingo woman
TTITLE4=Truth don't hurt nobody
TTITLE5=You hurt me so bad
TTITLE6=Evil woman/Evil ways
TTITLE7=How tender you can be
TTITLE8=Sixth Street Blues
TTITLE9=Downas Spirits
EXTD=
EXTT0=
EXTT1=
EXTT2=
EXTT3=
EXTT4=
EXTT5=
EXTT6=
EXTT7=
EXTT8=
EXTT9=
PLAYORDER=
